<svg xmlns="http://www.w3.org/2000/svg" viewBox="0 0 64 64" role="img" aria-label="LuckyGameTools icon">
  <defs>
    <linearGradient id="bg" x1="8" y1="6" x2="58" y2="58" gradientUnits="userSpaceOnUse">
      <stop offset="0" stop-color="#35f0c6"/>
      <stop offset="0.48" stop-color="#49c7ff"/>
      <stop offset="1" stop-color="#ffbd4a"/>
    </linearGradient>
    <linearGradient id="glass" x1="15" y1="13" x2="52" y2="53" gradientUnits="userSpaceOnUse">
      <stop offset="0" stop-color="#ffffff" stop-opacity="0.34"/>
      <stop offset="1" stop-color="#ffffff" stop-opacity="0.08"/>
    </linearGradient>
    <filter id="shadow" x="-20%" y="-20%" width="140%" height="140%" color-interpolation-filters="sRGB">
      <feDropShadow dx="0" dy="8" stdDeviation="7" flood-color="#000000" flood-opacity="0.32"/>
    </filter>
  </defs>
  <rect x="5" y="5" width="54" height="54" rx="16" fill="#06080d"/>
  <rect x="7" y="7" width="50" height="50" rx="15" fill="url(#bg)" filter="url(#shadow)"/>
  <path d="M14 20c8-6 28-8 38 0" fill="none" stroke="#ffffff" stroke-opacity="0.42" stroke-width="2" stroke-linecap="round"/>
  <path d="M21.5 28.5h21c5.3 0 9.5 4.2 9.5 9.4v2.2c0 3.8-4.7 5.8-7.4 3.1l-4-4H23.4l-4 4c-2.7 2.7-7.4 0.8-7.4-3.1v-2.2c0-5.2 4.2-9.4 9.5-9.4Z" fill="#061018" fill-opacity="0.74" stroke="#eaffff" stroke-width="2.4" stroke-linejoin="round"/>
  <path d="M24 33.5v7M20.5 37h7" stroke="#35f0c6" stroke-width="2.5" stroke-linecap="round"/>
  <circle cx="40" cy="35" r="2.5" fill="#ffbd4a"/>
  <circle cx="45" cy="40" r="2.5" fill="#ff5fa2"/>
  <path d="M35 24.5 38.4 18l3.3 6.5" fill="none" stroke="#ffffff" stroke-width="2.2" stroke-linecap="round" stroke-linejoin="round"/>
  <path d="M16 16.5 20.5 14M47 15l4 2.8" stroke="#ffffff" stroke-opacity="0.72" stroke-width="2" stroke-linecap="round"/>
  <rect x="8.5" y="8.5" width="47" height="47" rx="13.5" fill="url(#glass)" stroke="#ffffff" stroke-opacity="0.28"/>
</svg>
